<svg width="33" height="33" viewBox="0 0 33 33" fill="none" xmlns="http://www.w3.org/2000/svg">
<circle cx="16" cy="16" r="14" fill="#080516"/>
<g filter="url(#filter0_d_600_150)">
<rect x="5" y="16.2515" width="15.9157" height="15.9157" transform="rotate(-44.9872 5 16.2515)" fill="#FE0072" fill-opacity="0.4" shape-rendering="crispEdges"/>
<rect x="5.56569" y="16.2516" width="15.1157" height="15.1157" transform="rotate(-44.9872 5.56569 16.2516)" stroke="white" stroke-width="0.8" shape-rendering="crispEdges"/>
</g>
<path d="M7.60547 13.7051V13.1543C7.60547 12.9941 7.6582 12.8613 7.76367 12.7559C7.86914 12.6504 8.00195 12.5977 8.16211 12.5977H15.5977C15.7578 12.5977 15.8906 12.6504 15.9961 12.7559C16.1016 12.8613 16.1543 12.9941 16.1543 13.1543V13.7051C16.1543 13.8652 16.1016 13.998 15.9961 14.1035C15.8906 14.2051 15.7578 14.2559 15.5977 14.2559H12.9844V20.4609C12.9844 20.6133 12.9297 20.7422 12.8203 20.8477C12.7148 20.9492 12.5859 21 12.4336 21H11.3262C11.1738 21 11.043 20.9492 10.9336 20.8477C10.8281 20.7422 10.7754 20.6133 10.7754 20.4609V14.2559H8.16211C8.00195 14.2559 7.86914 14.2051 7.76367 14.1035C7.6582 13.998 7.60547 13.8652 7.60547 13.7051ZM16.5176 18.8496C16.5176 18.6191 16.5859 18.4551 16.7227 18.3574C16.8594 18.2559 16.9922 18.2051 17.1211 18.2051H17.8184C18.1699 18.2051 18.4375 18.3965 18.6211 18.7793C18.8047 19.1621 19.2168 19.3535 19.8574 19.3535L21.9082 19.3945C22.5957 19.3945 22.9395 19.1699 22.9395 18.7207C22.9395 18.3809 22.5195 18.1133 21.6797 17.918C21.3047 17.8281 20.8906 17.7402 20.4375 17.6543C19.9844 17.5645 19.5332 17.4531 19.084 17.3203C18.6387 17.1875 18.2285 17.0312 17.8535 16.8516C17.4785 16.6719 17.1738 16.4258 16.9395 16.1133C16.709 15.7969 16.5938 15.4258 16.5938 15C16.5938 14.2148 16.873 13.6113 17.4316 13.1895C17.9902 12.7637 18.9512 12.5508 20.3145 12.5508L21.8027 12.5859C22.6035 12.5859 23.3242 12.793 23.9648 13.207C24.6094 13.6172 24.9316 14.1309 24.9316 14.748C24.9316 14.9785 24.8633 15.1445 24.7266 15.2461C24.5898 15.3477 24.459 15.3984 24.334 15.3984H23.6367C23.2852 15.3984 23.0176 15.207 22.834 14.8242C22.6504 14.4375 22.2383 14.2441 21.5977 14.2441L19.834 14.209C19.1465 14.209 18.8027 14.4336 18.8027 14.8828C18.8027 15.1289 19.0195 15.3301 19.4531 15.4863C19.8906 15.6426 20.418 15.7812 21.0352 15.9023C21.6562 16.0195 22.2793 16.1621 22.9043 16.3301C23.5293 16.498 24.0586 16.7754 24.4922 17.1621C24.9297 17.5449 25.1484 18.0234 25.1484 18.5977C25.1484 19.3828 24.8672 19.9883 24.3047 20.4141C23.7461 20.8359 22.7871 21.0469 21.4277 21.0469L19.6523 21.0117C18.8516 21.0117 18.1289 20.8066 17.4844 20.3965C16.8398 19.9824 16.5176 19.4668 16.5176 18.8496Z" fill="white"/>
<defs>
<filter id="filter0_d_600_150" x="0" y="0" width="32.5078" height="32.5081" filterUnits="userSpaceOnUse" color-interpolation-filters="sRGB">
<feFlood flood-opacity="0" result="BackgroundImageFix"/>
<feColorMatrix in="SourceAlpha" type="matrix" values="0 0 0 0 0 0 0 0 0 0 0 0 0 0 0 0 0 0 127 0" result="hardAlpha"/>
<feMorphology radius="1" operator="dilate" in="SourceAlpha" result="effect1_dropShadow_600_150"/>
<feOffset/>
<feGaussianBlur stdDeviation="2"/>
<feComposite in2="hardAlpha" operator="out"/>
<feColorMatrix type="matrix" values="0 0 0 0 0.996078 0 0 0 0 0 0 0 0 0 0.447059 0 0 0 0.77 0"/>
<feBlend mode="normal" in2="BackgroundImageFix" result="effect1_dropShadow_600_150"/>
<feBlend mode="normal" in="SourceGraphic" in2="effect1_dropShadow_600_150" result="shape"/>
</filter>
</defs>
</svg>
